<?xml version="1.0" encoding="UTF-8"?>
<svg width="512" height="512" viewBox="0 0 512 512" xmlns="http://www.w3.org/2000/svg">
  <!-- Background circle -->
  <circle cx="256" cy="256" r="240" fill="#007aff" stroke="#005bb5" stroke-width="8"/>
  
  <!-- Hard disk icon -->
  <rect x="150" y="200" width="212" height="120" rx="12" fill="white"/>
  <rect x="160" y="210" width="192" height="20" rx="4" fill="#007aff"/>
  <rect x="160" y="240" width="192" height="20" rx="4" fill="#34c759"/>
  <rect x="160" y="270" width="192" height="20" rx="4" fill="#ff9500"/>
  <rect x="160" y="300" width="120" height="10" rx="2" fill="#8e8e93"/>
  
  <!-- Magnifying glass -->
  <circle cx="380" cy="180" r="30" fill="none" stroke="white" stroke-width="6"/>
  <circle cx="380" cy="180" r="18" fill="none" stroke="white" stroke-width="3"/>
  <line x1="402" y1="202" x2="420" y2="220" stroke="white" stroke-width="6" stroke-linecap="round"/>
  
  <!-- Chart bars -->
  <rect x="180" y="340" width="20" height="40" fill="white" rx="2"/>
  <rect x="210" y="350" width="20" height="30" fill="white" rx="2"/>
  <rect x="240" y="330" width="20" height="50" fill="white" rx="2"/>
  <rect x="270" y="345" width="20" height="35" fill="white" rx="2"/>
  <rect x="300" y="325" width="20" height="55" fill="white" rx="2"/>
</svg>